<svg id="Layer_1" data-name="Layer 1" xmlns="http://www.w3.org/2000/svg" viewBox="0 0 500 315.72"><defs><style>.cls-1{fill:#191919;}</style></defs><title>Artboard 1</title><path class="cls-1" d="M247.88,200c-23.13,0-43-7-57.51-20.23-14.69-13.41-23-86.2-24.27-118.4-.1-2.49,2.58-3.71,4-1.82l.18.25c6,8.08,9.8,14.95,11.17,25.48,5.94,45.52,37.1,97.94,66.44,97.94,30.09,0,62-52.42,68.13-97.94,1.41-10.57,5.24-17.45,11.26-25.56l.24-.32c1.36-1.84,4-.65,3.87,1.77-1.27,32.06-9.92,105.15-25.21,118.67C291.26,193.05,271.11,200,247.88,200Z"/><path class="cls-1" d="M248.74,45.72c-2.44,21.34-21.51,21.67-21.51,21.67s19.06.33,21.51,21.67c2.44-21.34,21.51-21.67,21.51-21.67S251.18,67.06,248.74,45.72Z"/><path class="cls-1" d="M291.09,76.25v27.31a24.17,24.17,0,0,1-8.21,18.15l-32.41,28.5V121.39a24.17,24.17,0,0,1,8.86-18.7Z"/><path class="cls-1" d="M206.39,76.25v27.31a24.17,24.17,0,0,0,8.21,18.15L247,150.2V121.39a24.17,24.17,0,0,0-8.86-18.7Z"/><path class="cls-1" d="M45.72,269.32V223.6H74.79c9.89,0,14.81,3.89,14.81,11.05,0,5.87-3.07,10-11.4,10.37v.68c9.14.34,13.51,4.57,13.51,10.92,0,7.71-4.44,12.69-15.35,12.69Zm12.76-28.39H73.43c2.59,0,3.34-.75,3.34-2.87s-1-2.94-3.68-2.94H58.48Zm0,16.86H74.73c3.07,0,4-.61,4-3.21s-.89-3.14-4-3.14H58.48Z"/><path class="cls-1" d="M94.45,269.32V223.6h12.83v34.19h26.41v11.53Z"/><path class="cls-1" d="M136.41,246.46c0-14.26,9.42-23.54,25.32-23.54,16.31,0,25.59,9.28,25.59,23.54S178,270,161.73,270C145.83,270,136.41,260.72,136.41,246.46Zm37.26,0c0-9.08-2.66-11.26-11.94-11.26s-11.67,2.18-11.67,11.26,2.39,11.26,11.67,11.26S173.68,255.54,173.68,246.46Z"/><path class="cls-1" d="M190.05,246.46c0-14.26,9.42-23.54,25.32-23.54,16.31,0,25.59,9.28,25.59,23.54S231.68,270,215.37,270C199.47,270,190.05,260.72,190.05,246.46Zm37.26,0c0-9.08-2.66-11.26-11.94-11.26s-11.67,2.18-11.67,11.26,2.39,11.26,11.67,11.26S227.31,255.54,227.31,246.46Z"/><path class="cls-1" d="M244.37,269.32V223.6h17.4l8.39,19,4.5,11.81h.89l4.3-11.81,8-19h17.4v45.72H292.41v-18.9l.48-7.64H292l-2.59,7.64-6.82,16.17H267l-6.82-16.17-2.59-7.64h-.89l.48,7.64v18.9Z"/><path class="cls-1" d="M309.34,269.32V223.6h25.32c10.85,0,17.67,6.21,17.67,17.06s-6.82,17.13-17.67,17.13H322.17v11.53Zm12.83-34.19v11.12h11.05c4.5,0,6.35-.89,6.35-5.6s-1.84-5.53-6.35-5.53Z"/><path class="cls-1" d="M423.85,269.32V235.13H407.67V223.6h45.11v11.53h-16.1v34.19Z"/><path class="cls-1" d="M380.21,222.94c-15.9,0-25.32,9.28-25.32,23.54S364.31,270,380.21,270c16.31,0,25.59-9.28,25.59-23.54S396.52,222.94,380.21,222.94Zm.14,37C378.83,246.69,367,246.49,367,246.49s11.85-.2,13.37-13.48c1.52,13.27,13.37,13.48,13.37,13.48S381.87,246.69,380.35,260Z"/></svg>